<svg xmlns="http://www.w3.org/2000/svg" width="512" height="512" viewBox="0 0 512 512" fill="none">
  <rect width="512" height="512" rx="100" fill="url(#gradient)"/>
  <path d="M256 96C167.63 96 96 167.63 96 256C96 344.37 167.63 416 256 416C344.37 416 416 344.37 416 256C416 167.63 344.37 96 256 96ZM320 272H272V320C272 328.84 264.84 336 256 336C247.16 336 240 328.84 240 320V272H192C183.16 272 176 264.84 176 256C176 247.16 183.16 240 192 240H240V192C240 183.16 247.16 176 256 176C264.84 176 272 183.16 272 192V240H320C328.84 240 336 247.16 336 256C336 264.84 328.84 272 320 272Z" fill="white"/>
  <defs>
    <linearGradient id="gradient" x1="0" y1="0" x2="512" y2="512" gradientUnits="userSpaceOnUse">
      <stop stop-color="#14b8a6"/>
      <stop offset="1" stop-color="#0ea5e9"/>
    </linearGradient>
  </defs>
</svg>
